<?xml version="1.0" encoding="UTF-8"?>
<svg class="" width="212px" height="48px" viewBox="0 0 212 48" version="1.1" xmlns="http://www.w3.org/2000/svg" xmlns:xlink="http://www.w3.org/1999/xlink">
  <path fill="#FFFFFF" class="primary" d="M44.7547126,11.9792971 L50.5347907,11.9792971 C52.890223,11.9792971 54.6051173,12.4364301 55.6795251,13.3507097 C56.7539328,14.2649894 57.2911286,15.7190338 57.2911286,17.7128866 C57.2911286,19.0249038 57.0070347,20.1225394 56.4388383,21.0058266 C55.8706419,21.8891137 55.0958402,22.4237268 54.1144101,22.609682 L54.1144101,22.7646439 C55.3954347,23.0849 56.3200313,23.68408 56.8882277,24.5622017 C57.4564241,25.4403234 57.7405181,26.6076912 57.7405181,28.0643402 C57.7405181,30.1201781 57.1904089,31.7291828 56.090174,32.8914027 C54.9899392,34.0536226 53.4842413,34.6347239 51.5730353,34.6347239 L44.7547126,34.6347239 L44.7547126,11.9792971 Z M48.7217367,21.0910556 L50.6587602,21.0910556 C51.5472127,21.0910556 52.1722194,20.8534498 52.5337989,20.378231 C52.8953784,19.9030121 53.0761655,19.19536 53.0761655,18.2552532 C53.0761655,17.3151464 52.8695517,16.641069 52.456318,16.2330007 C52.0430842,15.8249324 51.3922508,15.6209013 50.5037983,15.6209013 L48.7217367,15.6209013 L48.7217367,21.0910556 Z M48.7217367,24.6086903 L48.7217367,30.9466311 L50.8447144,30.9466311 C51.7228361,30.9466311 52.3762522,30.6780332 52.8049822,30.1408294 C53.2337122,29.6036255 53.448074,28.7720051 53.448074,27.6459431 C53.448074,25.6210977 52.5596348,24.6086903 50.7827297,24.6086903 L48.7217367,24.6086903 Z M73.1557815,25.9723548 C73.1557815,28.803006 72.5566015,31.0060253 71.3582237,32.581479 C70.1598458,34.1569326 68.5172663,34.9446476 66.4304359,34.9446476 C65.1080879,34.9446476 63.9407201,34.5830735 62.9282974,33.8599145 C61.9158747,33.1367554 61.1359078,32.0959385 60.588373,30.7374326 C60.0408383,29.3789267 59.7670751,27.7905833 59.7670751,25.9723548 C59.7670751,23.1726962 60.3610897,20.9851729 61.5491367,19.4097192 C62.7371837,17.8342656 64.3849286,17.0465505 66.4924206,17.0465505 C68.5275968,17.0465505 70.1469323,17.8497616 71.3504756,19.4562078 C72.5540188,21.062654 73.1557815,23.2346812 73.1557815,25.9723548 Z M63.9820382,25.9723548 C63.9820382,27.7699216 64.1783213,29.1284071 64.5708933,30.0478522 C64.9634654,30.9672973 65.5936374,31.427013 66.4614283,31.427013 C68.1143633,31.427013 68.9408183,29.6088118 68.9408183,25.9723548 C68.9408183,24.1644572 68.7419526,22.8137196 68.3442151,21.9201017 C67.9464776,21.0264837 67.3188883,20.5796814 66.4614283,20.5796814 C65.5936374,20.5796814 64.9634654,21.0264837 64.5708933,21.9201017 C64.1783213,22.8137196 63.9820382,24.1644572 63.9820382,25.9723548 Z M88.6175334,25.9723548 C88.6175334,28.803006 88.0183535,31.0060253 86.8199756,32.581479 C85.6215978,34.1569326 83.9790183,34.9446476 81.8921879,34.9446476 C80.5698399,34.9446476 79.4024721,34.5830735 78.3900494,33.8599145 C77.3776267,33.1367554 76.5976597,32.0959385 76.050125,30.7374326 C75.5025903,29.3789267 75.2288271,27.7905833 75.2288271,25.9723548 C75.2288271,23.1726962 75.8228417,20.9851729 77.0108887,19.4097192 C78.1989357,17.8342656 79.8466805,17.0465505 81.9541726,17.0465505 C83.9893488,17.0465505 85.6086843,17.8497616 86.8122275,19.4562078 C88.0157708,21.062654 88.6175334,23.2346812 88.6175334,25.9723548 Z M79.4437902,25.9723548 C79.4437902,27.7699216 79.6400733,29.1284071 80.0326453,30.0478522 C80.4252174,30.9672973 81.0553894,31.427013 81.9231802,31.427013 C83.5761152,31.427013 84.4025703,29.6088118 84.4025703,25.9723548 C84.4025703,24.1644572 84.2037046,22.8137196 83.8059671,21.9201017 C83.4082296,21.0264837 82.7806403,20.5796814 81.9231802,20.5796814 C81.0553894,20.5796814 80.4252174,21.0264837 80.0326453,21.9201017 C79.6400733,22.8137196 79.4437902,24.1644572 79.4437902,25.9723548 Z M100.561651,29.5829666 C100.561651,31.2668941 100.06836,32.5814742 99.0817648,33.5267464 C98.0951692,34.4720186 96.6411248,34.9446476 94.7195879,34.9446476 C93.0149987,34.9446476 91.6048597,34.6089002 90.4891286,33.9373954 L90.4891286,30.357776 C91.057325,30.750348 91.7210717,31.0757647 92.4803887,31.3340358 C93.2397057,31.5923069 93.9086178,31.7214405 94.4871451,31.7214405 C95.1276574,31.7214405 95.6157824,31.5638975 95.9515348,31.2488068 C96.2872872,30.9337161 96.4551609,30.5179058 96.4551609,30.0013637 C96.4551609,29.4744906 96.2795392,29.014775 95.9282905,28.6222029 C95.5770419,28.2296309 94.9313738,27.7492539 93.9912671,27.1810575 C92.741235,26.4372367 91.8450477,25.6443564 91.3026784,24.8023926 C90.7603092,23.9604289 90.4891286,22.9661001 90.4891286,21.8193764 C90.4891286,20.3523966 90.9927497,19.1901942 92.0000069,18.3327341 C93.0072642,17.4752741 94.3889938,17.0465505 96.1452372,17.0465505 C97.674202,17.0465505 99.1153331,17.4494474 100.468674,18.2552532 L99.1205053,21.2150251 C98.015105,20.6158362 97.0440203,20.3162462 96.2072219,20.3162462 C95.6803489,20.3162462 95.2852001,20.4557105 95.0217636,20.7346433 C94.758327,21.0135761 94.6266108,21.3544888 94.6266108,21.7573917 C94.6266108,22.2222796 94.7893191,22.6355072 95.1147407,22.9970867 C95.4401623,23.3586662 96.0470902,23.8080512 96.9355428,24.3452551 C98.0099505,24.9960982 98.7640908,25.5487901 99.1979862,26.0033472 C99.6318816,26.4579043 99.967629,26.9744387 100.205238,27.552966 C100.442848,28.1314932 100.561651,28.8081533 100.561651,29.5829666 Z M108.941645,31.4580053 C109.520172,31.4580053 110.145179,31.3133757 110.816684,31.0241121 L110.816684,34.2473192 C110.145179,34.7122071 109.137937,34.9446476 107.794927,34.9446476 C106.296955,34.9446476 105.186406,34.4978453 104.463247,33.6042274 C103.740087,32.7106094 103.378513,31.3702025 103.378513,29.5829666 L103.378513,20.6416662 L101.704925,20.6416662 L101.704925,18.7976198 L103.858895,17.3099857 L104.912636,13.6528854 L107.546988,13.6528854 L107.546988,17.3719705 L110.677218,17.3719705 L110.677218,20.6416662 L107.546988,20.6416662 L107.546988,29.7224323 C107.546988,30.8794868 108.011869,31.4580053 108.941645,31.4580053 Z M119.382632,34.9446476 C117.223486,34.9446476 115.521505,34.177594 114.276638,32.6434637 C113.031771,31.1093334 112.409347,28.9373061 112.409347,26.1273167 C112.409347,23.2760038 112.97237,21.0497404 114.098432,19.4484597 C115.224494,17.8471789 116.794758,17.0465505 118.809273,17.0465505 C120.689486,17.0465505 122.17194,17.7309587 123.256679,19.0997955 C124.341417,20.4686322 124.883779,22.3875576 124.883779,24.8566293 L124.883779,27.057088 L116.593318,27.057088 C116.624311,28.5963837 116.939397,29.7405074 117.538586,30.4894936 C118.137774,31.2384797 118.96423,31.6129672 120.017976,31.6129672 C121.360985,31.6129672 122.734967,31.1945743 124.139962,30.357776 L124.139962,33.7514411 C122.817614,34.5469161 121.231853,34.9446476 119.382632,34.9446476 Z M118.778281,20.2232691 C118.189422,20.2232691 117.70388,20.5357724 117.321639,21.1607884 C116.939398,21.7858045 116.717288,22.7543065 116.655303,24.0663237 L120.839274,24.0663237 C120.818612,22.8059608 120.627494,21.8503721 120.265915,21.1995289 C119.904335,20.5486858 119.408462,20.2232691 118.778281,20.2232691 Z M134.751407,17.0465505 C135.257618,17.0465505 135.753491,17.1240307 136.239041,17.2789934 L135.758659,21.2770099 C135.469395,21.1737014 135.092325,21.122048 134.627437,21.122048 C133.625345,21.122048 132.855709,21.5171968 132.318505,22.3075064 C131.781301,23.0978159 131.512703,24.247105 131.512703,25.7554082 L131.512703,34.6347239 L127.390717,34.6347239 L127.390717,17.3719705 L130.784383,17.3719705 L131.249268,20.0683072 L131.388734,20.0683072 C131.843291,18.9835686 132.339164,18.208767 132.876368,17.743879 C133.413572,17.278991 134.038579,17.0465505 134.751407,17.0465505 Z M156.051778,28.3897601 C156.051778,30.5075831 155.517165,32.1295012 154.447923,33.2555631 C153.37868,34.3816251 151.836825,34.9446476 149.82231,34.9446476 C147.849119,34.9446476 146.170382,34.5572468 144.786049,33.7824335 L144.786049,29.613959 C146.480308,30.7193592 148.035076,31.2720511 149.450402,31.2720511 C150.256208,31.2720511 150.863136,31.0499413 151.271204,30.605715 C151.679272,30.1614887 151.883303,29.5571434 151.883303,28.792661 C151.883303,28.0385094 151.640532,27.348936 151.154983,26.7239199 C150.669433,26.0989039 149.868805,25.4041651 148.753073,24.6396826 C147.781974,23.9681778 147.045913,23.3250924 146.544867,22.7104072 C146.043821,22.095722 145.65642,21.4061486 145.382653,20.6416662 C145.108885,19.8771837 144.972004,18.9887445 144.972004,17.9763218 C144.972004,16.0341232 145.511782,14.4948506 146.591355,13.3584578 C147.670928,12.222065 149.119807,11.6538771 150.938036,11.6538771 C152.673618,11.6538771 154.342024,12.1394195 155.943305,13.1105188 L154.548648,16.4886878 C154.052767,16.1994242 153.53365,15.9411569 152.991281,15.7138784 C152.448912,15.4865998 151.86781,15.3729623 151.24796,15.3729623 C150.566124,15.3729623 150.041842,15.5976547 149.675097,16.0470464 C149.308352,16.4964381 149.124982,17.1085314 149.124982,17.8833447 C149.124982,18.6478271 149.344509,19.3141565 149.78357,19.8823529 C150.222631,20.4505493 150.989684,21.0962174 152.084754,21.8193764 C153.562065,22.8111374 154.592551,23.8235449 155.176243,24.8566293 C155.759936,25.8897136 156.051778,27.0674121 156.051778,28.3897601 Z M164.369787,31.4580053 C164.948315,31.4580053 165.573321,31.3133757 166.244826,31.0241121 L166.244826,34.2473192 C165.573321,34.7122071 164.566079,34.9446476 163.223069,34.9446476 C161.725097,34.9446476 160.614548,34.4978453 159.891389,33.6042274 C159.16823,32.7106094 158.806656,31.3702025 158.806656,29.5829666 L158.806656,20.6416662 L157.133068,20.6416662 L157.133068,18.7976198 L159.287038,17.3099857 L160.340778,13.6528854 L162.97513,13.6528854 L162.97513,17.3719705 L166.10536,17.3719705 L166.10536,20.6416662 L162.97513,20.6416662 L162.97513,29.7224323 C162.97513,30.8794868 163.440011,31.4580053 164.369787,31.4580053 Z M176.90276,34.6347239 L176.081462,32.2793033 L175.988485,32.2793033 C175.378965,33.291726 174.748793,33.9890474 174.09795,34.3712887 C173.447107,34.7535299 172.625817,34.9446476 171.634056,34.9446476 C170.363362,34.9446476 169.363868,34.4694359 168.635544,33.5189983 C167.907219,32.5685607 167.543062,31.2462326 167.543062,29.5519742 C167.543062,27.7337457 168.041518,26.3830082 169.038444,25.4997211 C170.035371,24.6164339 171.525573,24.1283089 173.509095,24.0353313 L175.80253,23.9423542 L175.80253,22.7026591 C175.80253,21.0910475 175.105209,20.2852538 173.710545,20.2852538 C172.677461,20.2852538 171.489431,20.6881507 170.146422,21.4939565 L168.720773,18.6426579 C170.435693,17.5579193 172.300382,17.0155582 174.314896,17.0155582 C176.143456,17.0155582 177.535516,17.5398406 178.491119,18.5884212 C179.446722,19.6370019 179.924516,21.1220384 179.924516,23.0435753 L179.924516,34.6347239 L176.90276,34.6347239 Z M173.32314,31.7214405 C174.077292,31.7214405 174.679055,31.3831105 175.128446,30.7064402 C175.577838,30.02977 175.80253,29.1284174 175.80253,28.0023554 L175.80253,26.5457138 L174.531843,26.6076985 C173.591736,26.6593527 172.902163,26.9279506 172.463102,27.4135003 C172.024041,27.8990499 171.804514,28.6221981 171.804514,29.5829666 C171.804514,31.008623 172.310718,31.7214405 173.32314,31.7214405 Z M195.463749,17.4029629 L195.463749,19.8203682 L193.402756,20.2852538 C193.805659,21.0084129 194.007108,21.9175135 194.007108,23.0125829 C194.007108,24.8411422 193.511235,26.2719426 192.519474,27.305027 C191.527713,28.3381113 190.1434,28.8546458 188.366495,28.8546458 C187.849953,28.8546458 187.467718,28.813323 187.219777,28.7306763 C187.023491,28.9063006 186.837539,29.1025837 186.661915,29.3195314 C186.48629,29.5364791 186.398479,29.805077 186.398479,30.1253332 C186.398479,30.8484922 187.023486,31.2100663 188.273518,31.2100663 L190.768404,31.2100663 C192.235384,31.2100663 193.364012,31.6052152 194.154321,32.3955247 C194.944631,33.1858342 195.33978,34.3764461 195.33978,35.967396 C195.33978,37.9715797 194.668285,39.521183 193.325275,40.6162524 C191.982266,41.7113218 190.050427,42.2588483 187.529701,42.2588483 C185.618495,42.2588483 184.146372,41.8430381 183.113288,41.0114052 C182.080203,40.1797723 181.563669,38.9943258 181.563669,37.4550301 C181.563669,36.4942616 181.858093,35.6497278 182.446951,34.9214033 C183.03581,34.1930789 183.851934,33.6636311 184.895349,33.3330441 C184.368476,33.1264272 183.93717,32.8061759 183.601417,32.3722804 C183.265665,31.938385 183.097791,31.4321812 183.097791,30.853654 C183.097791,30.5024053 183.149445,30.1847366 183.252753,29.9006384 C183.356062,29.6165402 183.503274,29.3479423 183.694395,29.0948367 C183.885515,28.841731 184.275499,28.4672435 184.864357,27.971363 C184.151529,27.5374676 183.588506,26.8711382 183.175272,25.9723548 C182.762039,25.0735714 182.555425,24.07666 182.555425,22.9815905 C182.555425,21.0910461 183.051298,19.6292537 184.043059,18.5961693 C185.03482,17.563085 186.455289,17.0465505 188.30451,17.0465505 C188.655759,17.0465505 189.058656,17.0852906 189.513213,17.162772 C189.96777,17.2402533 190.313848,17.3203161 190.551458,17.4029629 L195.463749,17.4029629 Z M185.313746,37.1451063 C185.313746,37.826942 185.528108,38.3512244 185.956838,38.7179694 C186.385568,39.0847143 186.997661,39.2680841 187.793136,39.2680841 C189.043168,39.2680841 189.980678,39.0304782 190.605694,38.5552594 C191.23071,38.0800406 191.543214,37.4292072 191.543214,36.6027397 C191.543214,35.9518966 191.37534,35.4921809 191.039588,35.223579 C190.703835,34.9549771 190.076246,34.8206781 189.156801,34.8206781 L187.157793,34.8206781 C186.599927,34.8206781 186.153125,35.0298746 185.817372,35.4482737 C185.48162,35.8666729 185.313746,36.4322781 185.313746,37.1451063 Z M186.584434,23.0125829 C186.584434,25.0477591 187.157787,26.0653319 188.30451,26.0653319 C189.420242,26.0653319 189.978099,25.0374284 189.978099,22.9815905 C189.978099,20.8740984 189.420242,19.8203682 188.30451,19.8203682 C187.157787,19.8203682 186.584434,20.8844291 186.584434,23.0125829 Z M203.688782,34.9446476 C201.529635,34.9446476 199.827654,34.177594 198.582788,32.6434637 C197.337921,31.1093334 196.715497,28.9373061 196.715497,26.1273167 C196.715497,23.2760038 197.278519,21.0497404 198.404581,19.4484597 C199.530643,17.8471789 201.100908,17.0465505 203.115423,17.0465505 C204.995636,17.0465505 206.47809,17.7309587 207.562829,19.0997955 C208.647567,20.4686322 209.189928,22.3875576 209.189928,24.8566293 L209.189928,27.057088 L200.899468,27.057088 C200.93046,28.5963837 201.245546,29.7405074 201.844735,30.4894936 C202.443924,31.2384797 203.270379,31.6129672 204.324125,31.6129672 C205.667135,31.6129672 207.041116,31.1945743 208.446111,30.357776 L208.446111,33.7514411 C207.123763,34.5469161 205.538003,34.9446476 203.688782,34.9446476 Z M203.08443,20.2232691 C202.495572,20.2232691 202.01003,20.5357724 201.627789,21.1607884 C201.245547,21.7858045 201.023438,22.7543065 200.961452,24.0663237 L205.145423,24.0663237 C205.124762,22.8059608 204.933644,21.8503721 204.572064,21.1995289 C204.210485,20.5486858 203.714612,20.2232691 203.08443,20.2232691 Z" id="logotype" ></path>
  <path fill="#FFFFFF" class="primary" d="M27.1257904,39.6280531 C27.2572787,39.7449245 27.3543564,39.9014579 27.3974947,40.0822363 L27.9867366,42.5515547 C28.0997438,43.0251309 27.807445,43.5006506 27.3338689,43.6136579 C27.2668384,43.629653 27.1981636,43.6377334 27.1292512,43.6377334 L18.6064493,43.6377334 C18.1195767,43.6377334 17.7248884,43.2430451 17.7248884,42.7561725 C17.7248884,42.68726 17.7329688,42.6185852 17.7489639,42.5515547 L18.3382058,40.0822363 C18.3813441,39.9014579 18.4784218,39.7449245 18.6099101,39.6280531 L5.95409219,39.6280531 C5.95288828,39.6280531 5.95168438,39.6280511 5.95048047,39.6280472 C5.34189293,39.6260525 4.85015227,39.1310778 4.85214697,38.5224902 L4.88337628,28.9943351 L8.5737746,28.0054958 L8.4823303,35.1989818 C8.48226206,35.2043493 8.48223305,35.2097174 8.48224327,35.2150854 C8.4834012,35.8236751 8.97769933,36.3160958 9.58628904,36.3149379 L35.4861359,36.2656596 C35.4883492,36.2656553 35.4905625,36.2656445 35.4927758,36.2656269 C36.1013474,36.2608019 36.5907808,35.7635456 36.5859558,35.1549739 L36.470008,20.5307226 L40.1109599,19.5551325 L40.1109599,38.5261019 C40.1109599,39.1346928 39.6175996,39.6280531 39.0090088,39.6280531 L27.1257904,39.6280531 Z M26.0321139,26.6104423 L25.235749,30.2783737 C25.0986456,30.7386547 24.9533278,31.1994855 24.7985235,31.6606124 C23.2526531,31.6606124 21.7068358,31.6606124 20.1610185,31.6606124 C20.0061612,31.1994855 19.8608433,30.7386547 19.72374,30.2783737 L18.9273677,26.6104087 C19.0407963,28.6289014 18.7874688,30.8368681 18.1178948,33.0590024 C17.4995593,33.0590024 16.8812239,33.0590024 16.2628885,33.0590024 C14.831832,28.3099213 15.3021057,23.6255504 17.1903605,20.7171496 C17.6252006,21.3868939 17.9848408,22.1508152 18.2633816,22.9880167 C17.4972415,15.5283044 19.0562635,8.69998172 22.4797445,3.96749225 C25.903174,8.69997996 27.462241,15.5283372 26.6961078,22.9880144 C26.9746506,22.1508138 27.3342933,21.3868932 27.7691363,20.7171496 C29.6574056,23.6255504 30.1276206,28.3099213 28.6966155,33.0590024 C28.0782753,33.0590024 27.4599351,33.0590024 26.841595,33.0590024 C26.1720196,30.8368805 25.9186891,28.6289259 26.0321139,26.6104423 Z M22.4797417,15.4277841 C23.453487,15.4277841 24.2428635,14.6384076 24.2428635,13.6646623 C24.2428635,12.690917 23.453487,11.9015405 22.4797417,11.9015405 C21.5059964,11.9015405 20.7166198,12.690917 20.7166198,13.6646623 C20.7166198,14.6384076 21.5059964,15.4277841 22.4797417,15.4277841 Z" id="rocket" transform="translate(22.481550, 23.802613) rotate(-705.000000) translate(-22.481550, -23.802613) "></path>
</svg>
